<svg 
 xmlns="http://www.w3.org/2000/svg"
 xmlns:xlink="http://www.w3.org/1999/xlink"
 width="1663px" height="656px">
<path fill-rule="evenodd"  fill="rgb(242, 242, 242)"
 d="M1638.44,566.716 C1621.856,582.405 1598.523,590.250 1568.42,590.250 C1538.257,590.250 1515.372,582.629 1499.385,567.389 C1483.397,552.148 1475.403,530.235 1475.403,501.645 L1475.403,368.813 L1534.722,368.813 L1534.722,497.13 C1534.722,512.455 1537.610,523.661 1543.388,530.632 C1549.164,537.606 1557.681,541.91 1568.939,541.91 C1580.990,541.91 1589.731,537.631 1595.161,530.707 C1600.589,523.784 1603.304,512.455 1603.304,496.714 L1603.304,368.813 L1662.324,368.813 L1662.324,500.300 C1662.324,528.891 1654.230,551.28 1638.44,566.716 ZM1392.626,456.969 C1411.453,465.437 1424.527,474.526 1431.848,484.238 C1439.170,493.950 1442.830,506.179 1442.830,520.920 C1442.830,534.468 1439.394,546.496 1432.520,557.4 C1425.647,567.515 1415.734,575.681 1402.786,581.509 C1389.836,587.336 1374.645,590.250 1357.214,590.250 C1342.669,590.250 1330.468,589.227 1320.607,587.186 C1310.745,585.146 1300.485,581.583 1289.827,576.503 L1289.827,523.908 C1301.82,529.686 1312.786,534.195 1324.940,537.431 C1337.92,540.669 1348.249,542.287 1358.410,542.287 C1367.174,542.287 1373.599,540.769 1377.684,537.729 C1381.768,534.692 1383.810,530.782 1383.810,526.0 C1383.810,523.12 1382.989,520.397 1381.345,518.156 C1379.701,515.914 1377.61,513.650 1373.426,511.357 C1369.789,509.67 1360.102,504.386 1344.364,497.312 C1330.118,490.838 1319.435,484.563 1312.314,478.485 C1305.191,472.411 1299.913,465.437 1296.476,457.567 C1293.39,449.699 1291.321,440.384 1291.321,429.626 C1291.321,409.506 1298.643,393.817 1313.286,382.559 C1327.928,371.304 1348.48,365.675 1373.650,365.675 C1396.261,365.675 1419.320,370.905 1442.830,381.364 L1424.751,426.936 C1404.330,417.575 1386.698,412.891 1371.857,412.891 C1364.185,412.891 1358.608,414.236 1355.122,416.925 C1351.634,419.615 1349.893,422.954 1349.893,426.936 C1349.893,431.220 1352.108,435.56 1356.542,438.442 C1360.973,441.829 1373.1,448.4 1392.626,456.969 ZM1228.566,224.995 C1194.298,224.995 1168.27,215.383 1149.749,196.157 C1131.468,176.934 1122.331,148.941 1122.331,112.185 C1122.331,75.827 1131.419,48.61 1149.599,28.884 C1167.777,9.710 1194.200,0.122 1228.865,0.122 C1263.628,0.122 1289.977,9.635 1307.907,28.660 C1325.837,47.688 1334.802,75.629 1334.802,112.483 C1334.802,149.240 1325.786,177.181 1307.757,196.307 C1289.727,215.432 1263.329,224.995 1228.566,224.995 ZM1261.662,64.147 C1254.341,53.739 1243.408,48.533 1228.865,48.533 C1199.280,48.533 1184.488,69.850 1184.488,112.483 C1184.488,154.720 1199.180,175.836 1228.566,175.836 C1243.508,175.836 1254.588,170.707 1261.812,160.446 C1269.33,150.188 1272.644,134.200 1272.644,112.483 C1272.644,90.668 1268.984,74.557 1261.662,64.147 ZM1268.759,417.75 L1215.567,417.75 L1215.567,587.261 L1156.547,587.261 L1156.547,417.75 L1103.205,417.75 L1103.205,368.813 L1268.759,368.813 L1268.759,417.75 ZM1023.566,92.611 L1089.11,92.611 L1089.11,139.976 L1023.566,139.976 L1023.566,222.6 L965.442,222.6 L965.442,3.558 L1094.539,3.558 L1094.539,50.923 L1023.566,50.923 L1023.566,92.611 ZM887.745,655.844 C876.987,655.844 866.777,654.798 857.114,652.706 L857.114,606.835 C860.304,607.433 863.689,608.105 867.275,608.852 C870.861,609.599 874.746,609.973 878.929,609.973 C888.690,609.973 895.664,607.33 899.848,601.157 C904.31,595.278 906.123,585.221 906.123,570.975 L906.123,368.813 L965.442,368.813 L965.442,565.895 C965.442,595.479 958.966,617.866 946.18,633.58 C933.67,648.247 913.643,655.844 887.745,655.844 ZM858.609,92.611 L924.54,92.611 L924.54,139.976 L858.609,139.976 L858.609,222.6 L800.486,222.6 L800.486,3.558 L929.582,3.558 L929.582,50.923 L858.609,50.923 L858.609,92.611 ZM874.895,528.540 L790.474,528.540 L790.474,481.922 L874.895,481.922 L874.895,528.540 ZM667.504,590.250 C637.718,590.250 614.834,582.629 598.847,567.389 C582.859,552.148 574.865,530.235 574.865,501.645 L574.865,368.813 L634.184,368.813 L634.184,497.13 C634.184,512.455 637.72,523.661 642.850,530.632 C648.626,537.606 657.143,541.91 668.400,541.91 C680.452,541.91 689.193,537.631 694.623,530.707 C700.51,523.784 702.766,512.455 702.766,496.714 L702.766,368.813 L761.786,368.813 L761.786,500.300 C761.786,528.891 753.692,551.28 737.506,566.716 C721.317,582.405 697.985,590.250 667.504,590.250 ZM660.332,224.995 C630.547,224.995 607.663,217.374 591.675,202.134 C575.687,186.893 567.693,164.980 567.693,136.390 L567.693,3.558 L627.12,3.558 L627.12,131.758 C627.12,147.200 629.900,158.406 635.678,165.377 C641.454,172.351 649.971,175.836 661.229,175.836 C673.280,175.836 682.21,172.376 687.451,165.452 C692.880,158.530 695.595,147.200 695.595,131.459 L695.595,3.558 L754.614,3.558 L754.614,135.46 C754.614,163.636 746.520,185.773 730.334,201.462 C714.146,217.150 690.813,224.995 660.332,224.995 ZM482.77,222.6 L435.758,142.516 L420.816,142.516 L420.816,222.6 L361.796,222.6 L361.796,3.558 L433.367,3.558 C492.735,3.558 522.420,25.74 522.420,68.106 C522.420,93.409 510.67,112.983 485.365,126.828 L549.16,222.6 L482.77,222.6 ZM432.471,48.234 L420.816,48.234 L420.816,98.139 L431.873,98.139 C452.493,98.139 462.803,89.25 462.803,70.796 C462.803,55.756 452.691,48.234 432.471,48.234 ZM362.991,368.813 L422.310,368.813 L422.310,565.895 C422.310,595.479 415.834,617.866 402.886,633.58 C389.935,648.247 370.511,655.844 344.613,655.844 C333.855,655.844 323.646,654.798 313.982,652.706 L313.982,606.835 C317.172,607.433 320.557,608.105 324.143,608.852 C327.729,609.599 331.614,609.973 335.797,609.973 C345.559,609.973 352.532,607.33 356.716,601.157 C360.900,595.278 362.991,585.221 362.991,570.975 L362.991,368.813 ZM193.851,3.558 L323.546,3.558 L323.546,50.923 L252.871,50.923 L252.871,85.289 L318.316,85.289 L318.316,132.655 L252.871,132.655 L252.871,173.894 L323.546,173.894 L323.546,222.6 L193.851,222.6 L193.851,3.558 ZM76.111,149.539 L59.525,149.539 L59.525,222.6 L0.505,222.6 L0.505,3.558 L76.111,3.558 C103.701,3.558 124.421,9.586 138.268,21.638 C152.113,33.692 159.37,50.825 159.37,73.37 C159.37,97.444 151.839,116.294 137.446,129.592 C123.51,142.890 102.606,149.539 76.111,149.539 ZM74.766,51.222 L59.525,51.222 L59.525,101.427 L70.283,101.427 C79.148,101.427 86.196,98.938 91.426,93.956 C96.655,88.976 99.270,82.103 99.270,73.336 C99.270,58.595 91.101,51.222 74.766,51.222 ZM528.845,587.261 L469.526,587.261 L469.526,368.813 L528.845,368.813 L528.845,587.261 ZM1071.977,587.261 L1012.658,587.261 L1012.658,368.813 L1071.977,368.813 L1071.977,587.261 Z"/>
</svg>